# xmcd
# 
# Track frame offsets:
#     150
#     14037
#     31637
#     50347
# 
# Disc length: 995
# 
# Revision: 0
# Processed by: cddbd v1.5.2PL0 Copyright (c) Steve Scherf et al.
# Submitted via: fre:ac v1.0.17
# 
DISCID=2703e104
DTITLE=Schwester S - Hier kommt die Schwester - Pass auf MCD
DYEAR=1994
DGENRE=Hip-Hop
TTITLE0=Hier kommt die Schwester (Radio Edit)
TTITLE1=Hier kommt die Schwester (Originalversion)
TTITLE2=Pass auf (LP Version)
TTITLE3=Pass auf (Mehr Mix)
EXTD=
EXTT0=
EXTT1=
EXTT2=
EXTT3=
PLAYORDER=
